<svg width="60" height="60" viewBox="0 0 60 60" fill="none" xmlns="http://www.w3.org/2000/svg">
<g id="Frame">
<path id="Vector" d="M18.7338 12L12 18.7017V41.2983L18.7338 48H41.2662L48 41.2983V18.7017L41.2662 12H18.7338Z" fill="#25BCEF"/>
<path id="Vector_2" d="M7 21H3C2.44772 21 2 21.4477 2 22C2 22.5523 2.44772 23 3 23H7C7.55228 23 8 22.5523 8 22C8 21.4477 7.55228 21 7 21Z" fill="white"/>
<path id="Vector_3" d="M7 35H3C2.44772 35 2 35.4477 2 36C2 36.5523 2.44772 37 3 37H7C7.55228 37 8 36.5523 8 36C8 35.4477 7.55228 35 7 35Z" fill="white"/>
<path id="Vector_4" d="M7 28H3C2.44772 28 2 28.4477 2 29C2 29.5523 2.44772 30 3 30H7C7.55228 30 8 29.5523 8 29C8 28.4477 7.55228 28 7 28Z" fill="white"/>
<path id="Vector_5" d="M57 21H53C52.4477 21 52 21.4477 52 22C52 22.5523 52.4477 23 53 23H57C57.5523 23 58 22.5523 58 22C58 21.4477 57.5523 21 57 21Z" fill="white"/>
<path id="Vector_6" d="M57 35H53C52.4477 35 52 35.4477 52 36C52 36.5523 52.4477 37 53 37H57C57.5523 37 58 36.5523 58 36C58 35.4477 57.5523 35 57 35Z" fill="white"/>
<path id="Vector_7" d="M57 28H53C52.4477 28 52 28.4477 52 29C52 29.5523 52.4477 30 53 30H57C57.5523 30 58 29.5523 58 29C58 28.4477 57.5523 28 57 28Z" fill="white"/>
<path id="Vector_8" d="M38 57V53C38 52.4477 37.5523 52 37 52C36.4477 52 36 52.4477 36 53V57C36 57.5523 36.4477 58 37 58C37.5523 58 38 57.5523 38 57Z" fill="white"/>
<path id="Vector_9" d="M24 57V53C24 52.4477 23.5523 52 23 52C22.4477 52 22 52.4477 22 53V57C22 57.5523 22.4477 58 23 58C23.5523 58 24 57.5523 24 57Z" fill="white"/>
<path id="Vector_10" d="M31 57V53C31 52.4477 30.5523 52 30 52C29.4477 52 29 52.4477 29 53V57C29 57.5523 29.4477 58 30 58C30.5523 58 31 57.5523 31 57Z" fill="white"/>
<path id="Vector_11" d="M38 7V3C38 2.44772 37.5523 2 37 2C36.4477 2 36 2.44772 36 3V7C36 7.55228 36.4477 8 37 8C37.5523 8 38 7.55228 38 7Z" fill="white"/>
<path id="Vector_12" d="M24 7V3C24 2.44772 23.5523 2 23 2C22.4477 2 22 2.44772 22 3V7C22 7.55228 22.4477 8 23 8C23.5523 8 24 7.55228 24 7Z" fill="white"/>
<path id="Vector_13" d="M31 7V3C31 2.44772 30.5523 2 30 2C29.4477 2 29 2.44772 29 3V7C29 7.55228 29.4477 8 30 8C30.5523 8 31 7.55228 31 7Z" fill="white"/>
<path id="Vector_14" d="M17.768 38L25.352 19.928H25.496L33.056 38H30.392L24.728 23.576L26.384 22.496L20.048 38H17.768ZM22.208 31.424H28.664L29.432 33.44H21.536L22.208 31.424ZM36.3241 20.648H38.6521V38H36.3241V20.648Z" fill="white"/>
</g>
</svg>
