<svg width="155" height="60" viewBox="0 0 155 60" fill="none" xmlns="http://www.w3.org/2000/svg">
<g id="Logo" clip-path="url(#clip0_11_20380)">
<g id="Layer 1">
<g id="Group">
<path id="Vector" fill-rule="evenodd" clip-rule="evenodd" d="M5.1162 24.911C5.1162 24.1096 5.45865 23.4315 6.14355 22.8699C6.82845 22.3082 7.78731 22.0274 9.02699 22.0274C10.1228 22.0274 11.2118 22.2397 12.2871 22.6644C13.3624 23.089 14.4514 23.6986 15.5472 24.5L17.8143 21.3082C16.5814 20.3219 15.2596 19.5753 13.8487 19.0616C12.4446 18.5479 10.8557 18.2877 9.09548 18.2877C7.90375 18.2877 6.8079 18.4521 5.80795 18.7877C4.80114 19.1233 3.94502 19.5959 3.22587 20.2123C2.50673 20.8288 1.95196 21.5685 1.54101 22.4247C1.13692 23.2808 0.931453 24.2397 0.931453 25.2877C0.931453 26.411 1.10953 27.3562 1.46568 28.137C1.82182 28.9178 2.34235 29.5753 3.01355 30.1301C3.6916 30.6781 4.52718 31.137 5.52714 31.5C6.5271 31.863 7.66403 32.1986 8.95165 32.4931C10.0749 32.7671 10.979 33.0342 11.6844 33.2808C12.383 33.5342 12.9309 33.8014 13.335 34.089C13.7323 34.3767 14.0131 34.6918 14.1569 35.0342C14.3076 35.3767 14.3829 35.7671 14.3829 36.1986C14.3829 37.137 13.9994 37.8836 13.2323 38.4315C12.4652 38.9795 11.431 39.2534 10.1297 39.2534C8.62289 39.2534 7.26679 38.9863 6.08191 38.4452C4.89018 37.911 3.71215 37.137 2.54782 36.1301L0.00683594 39.1507C1.44513 40.4521 3.01355 41.4247 4.70526 42.0479C6.39696 42.6781 8.17086 42.9931 10.0269 42.9931C11.2872 42.9931 12.4378 42.8356 13.4925 42.5137C14.5404 42.1918 15.4445 41.726 16.1842 41.1096C16.9307 40.4931 17.5129 39.7397 17.9375 38.8425C18.3553 37.9521 18.5677 36.9315 18.5677 35.7877C18.5677 34.7808 18.4033 33.9041 18.0677 33.1644C17.7389 32.4178 17.2458 31.7671 16.602 31.2055C15.9582 30.6438 15.15 30.1712 14.1774 29.7808C13.2049 29.3904 12.0816 29.0342 10.8283 28.7192C9.67764 28.4452 8.73248 28.1849 7.98594 27.9315C7.23939 27.6781 6.65723 27.4041 6.23259 27.1096C5.80795 26.8151 5.52029 26.4931 5.35591 26.1507C5.19839 25.8082 5.1162 25.3973 5.1162 24.9178V24.911ZM150.822 35.2603L138.014 18.6918H134.117V42.6575H138.295V25.6096L151.48 42.6575H155V18.6849H150.822V35.2534V35.2603ZM92.1329 39.3288V29.2397H81.9073V32.911H88.0509V37.4315C87.318 37.9863 86.4551 38.4247 85.462 38.7671C84.4689 39.0959 83.4004 39.2671 82.2566 39.2671C81.017 39.2671 79.9074 39.0479 78.9075 38.6164C77.9144 38.1849 77.0582 37.5753 76.3322 36.8082C75.6131 36.0411 75.0583 35.1301 74.6679 34.0753C74.2775 33.0205 74.0858 31.8699 74.0858 30.637C74.0858 29.4726 74.2844 28.363 74.6885 27.3356C75.0926 26.3014 75.6405 25.3973 76.3322 24.6164C77.0308 23.8425 77.8527 23.2192 78.8047 22.774C79.7567 22.3288 80.7772 22.1027 81.8799 22.1027C82.6333 22.1027 83.3251 22.1644 83.9552 22.2945C84.5853 22.4247 85.1606 22.589 85.688 22.8082C86.2154 23.0274 86.7153 23.2945 87.1948 23.6164C87.6742 23.9384 88.1468 24.2945 88.5988 24.6781L91.2768 21.4863C90.6604 20.9589 90.0234 20.5 89.3728 20.0959C88.7221 19.6986 88.0303 19.3562 87.2975 19.0822C86.5647 18.8082 85.7702 18.5959 84.914 18.4452C84.0579 18.2945 83.0991 18.2192 82.0512 18.2192C80.243 18.2192 78.5787 18.5548 77.0582 19.2123C75.5377 19.8767 74.2296 20.774 73.1269 21.9041C72.031 23.0411 71.1749 24.3562 70.5722 25.8699C69.9695 27.3767 69.6613 28.9794 69.6613 30.6712C69.6613 32.363 69.9558 34.0685 70.5517 35.5753C71.1475 37.0822 71.99 38.3973 73.0721 39.5068C74.1611 40.6164 75.4693 41.4863 77.0034 42.1164C78.5376 42.7466 80.243 43.0616 82.1128 43.0616C83.1675 43.0616 84.1743 42.9657 85.1332 42.7671C86.0921 42.5753 86.9893 42.3014 87.8249 41.9589C88.6605 41.6164 89.4344 41.2123 90.1604 40.7603C90.8795 40.3014 91.537 39.8219 92.1329 39.3219V39.3288ZM56.4221 18.637V42.6575H60.6069V18.6301H56.4221V18.637ZM48.0938 38.8151L45.3815 36.0685C44.3542 37.0274 43.3131 37.7877 42.2584 38.3493C41.2036 38.911 39.9503 39.1918 38.4846 39.1918C37.3408 39.1918 36.2861 38.9658 35.3135 38.5205C34.3409 38.0753 33.4985 37.4589 32.7931 36.6849C32.0876 35.9041 31.5328 35 31.1493 33.9589C30.7589 32.9178 30.5671 31.8014 30.5671 30.6096C30.5671 29.4178 30.7589 28.3082 31.1493 27.2808C31.5397 26.2534 32.0876 25.3562 32.7931 24.589C33.5054 23.8219 34.3409 23.2192 35.3135 22.7671C36.2861 22.3219 37.3477 22.0959 38.4846 22.0959C39.8544 22.0959 41.0804 22.3699 42.1557 22.9178C43.231 23.4658 44.2515 24.1849 45.2103 25.0822L47.9225 21.9589C47.3541 21.411 46.7445 20.9041 46.1007 20.4452C45.4637 19.9863 44.7651 19.5959 44.0049 19.2603C43.2515 18.9315 42.4228 18.6712 41.5187 18.4863C40.6146 18.3014 39.6147 18.2123 38.512 18.2123C36.6833 18.2123 35.0121 18.5411 33.5054 19.1918C31.9917 19.8425 30.6904 20.7329 29.5946 21.8699C28.4987 23 27.6426 24.3219 27.0399 25.8356C26.4303 27.3425 26.129 28.9589 26.129 30.6712C26.129 32.3836 26.4372 34.0342 27.0536 35.5411C27.67 37.0479 28.5261 38.363 29.6083 39.4726C30.6973 40.5822 31.9849 41.4589 33.4711 42.0959C34.9573 42.7397 36.5806 43.0548 38.3476 43.0548C39.4708 43.0548 40.4913 42.9589 41.416 42.7603C42.3406 42.5685 43.1967 42.2808 43.9706 41.9041C44.7514 41.5274 45.4774 41.0822 46.1486 40.5685C46.8198 40.0548 47.4705 39.4658 48.0869 38.8014L48.0938 38.8151Z" fill="white"/>
<path id="Vector_2" fill-rule="evenodd" clip-rule="evenodd" d="M125.344 30.6438C125.344 23.7055 119.721 18.0822 112.783 18.0822C105.845 18.0822 100.222 23.7055 100.222 30.6438C100.222 37.5822 105.845 43.2055 112.783 43.2055C119.721 43.2055 125.344 37.5822 125.344 30.6438ZM58.518 9.68493C57.0523 9.68493 55.8605 10.8767 55.8605 12.3425C55.8605 13.8082 57.0523 15 58.518 15C59.9836 15 61.1754 13.8082 61.1754 12.3425C61.1754 10.8767 59.9836 9.68493 58.518 9.68493ZM95.9821 3.97945C92.626 3.97945 89.907 6.69863 89.907 10.0548C89.907 13.411 92.626 16.1301 95.9821 16.1301C99.3381 16.1301 102.057 13.411 102.057 10.0548C102.057 6.69863 99.3381 3.97945 95.9821 3.97945ZM75.661 0C73.1611 0 71.1407 2.0274 71.1407 4.52055C71.1407 7.0137 73.168 9.0411 75.661 9.0411C78.1541 9.0411 80.1814 7.0137 80.1814 4.52055C80.1814 2.0274 78.1541 0 75.661 0ZM112.783 22.5137C117.276 22.5137 120.912 26.1575 120.912 30.6438C120.912 35.1301 117.269 38.774 112.783 38.774C108.297 38.774 104.653 35.1301 104.653 30.6438C104.653 26.1575 108.297 22.5137 112.783 22.5137Z" fill="#25BCEF"/>
<path id="Vector_3" fill-rule="evenodd" clip-rule="evenodd" d="M48.991 59.8493H56.2647V58.1986H50.806V49.4589H48.9978V59.8493H48.991ZM69.5654 49.3836H67.8737L63.3054 59.8493H65.1752L66.2437 57.3425H71.1544L72.2092 59.8493H74.1406L69.5723 49.3836H69.5654ZM70.4832 55.7192H66.908L68.6888 51.5616L70.4832 55.7192ZM86.5852 49.4589H81.9347V59.8493H86.7359C87.3112 59.8493 87.8317 59.7877 88.3043 59.6644C88.7769 59.5411 89.181 59.3562 89.5166 59.1164C89.8522 58.8767 90.1125 58.5753 90.2905 58.2192C90.4755 57.863 90.5645 57.4521 90.5645 56.9932C90.5645 56.637 90.5166 56.3219 90.4138 56.0548C90.3179 55.7808 90.1741 55.5479 89.996 55.3493C89.818 55.1507 89.5988 54.9795 89.3454 54.8356C89.092 54.6918 88.818 54.5685 88.5098 54.4589C88.6947 54.3562 88.8796 54.2397 89.0646 54.1027C89.2426 53.9658 89.4002 53.8014 89.5371 53.6233C89.6673 53.4384 89.7769 53.226 89.8591 52.9795C89.9412 52.7329 89.9823 52.4452 89.9823 52.1301C89.9823 51.3082 89.6741 50.6575 89.0646 50.1849C88.455 49.7055 87.6194 49.4726 86.5784 49.4726L86.5852 49.4589ZM86.2291 53.8493H83.7429V51.0753H86.3592C86.9551 51.0753 87.4003 51.1918 87.7153 51.4247C88.0235 51.6575 88.181 51.9863 88.181 52.4178C88.181 52.9041 88.003 53.2671 87.6468 53.5C87.2907 53.7329 86.8181 53.8493 86.2291 53.8493ZM86.7633 58.226H83.7429V55.3767H86.6263C87.3455 55.3767 87.8797 55.5 88.229 55.7466C88.5783 55.9932 88.7564 56.3425 88.7564 56.7877C88.7564 57.2603 88.5783 57.6233 88.2221 57.863C87.866 58.1027 87.3797 58.226 86.7565 58.226H86.7633ZM100.194 52.1712C100.194 51.8219 100.345 51.5274 100.639 51.2877C100.934 51.0479 101.352 50.9247 101.886 50.9247C102.358 50.9247 102.831 51.0137 103.297 51.1986C103.763 51.3836 104.235 51.6438 104.708 51.9932L105.687 50.6164C105.153 50.1918 104.584 49.8699 103.975 49.6438C103.365 49.4247 102.68 49.3082 101.92 49.3082C101.406 49.3082 100.934 49.3767 100.496 49.5206C100.064 49.6644 99.6874 49.8699 99.3792 50.137C99.071 50.4041 98.8244 50.726 98.6463 51.0959C98.4683 51.4658 98.3792 51.8836 98.3792 52.3356C98.3792 52.8219 98.4546 53.2329 98.6121 53.5685C98.7628 53.9041 98.9888 54.1918 99.2833 54.4315C99.5778 54.6712 99.9408 54.8699 100.372 55.0274C100.804 55.1849 101.297 55.3288 101.852 55.4589C102.338 55.5753 102.728 55.6918 103.037 55.8014C103.338 55.911 103.578 56.0274 103.749 56.1507C103.92 56.274 104.043 56.411 104.105 56.5616C104.167 56.7123 104.201 56.8767 104.201 57.0685C104.201 57.4726 104.037 57.7945 103.701 58.0343C103.372 58.274 102.92 58.3904 102.359 58.3904C101.708 58.3904 101.119 58.274 100.605 58.0411C100.091 57.8082 99.5847 57.4726 99.0778 57.0411L97.982 58.3493C98.6052 58.911 99.2833 59.3288 100.016 59.6027C100.749 59.8767 101.516 60.0137 102.317 60.0137C102.858 60.0137 103.358 59.9452 103.817 59.8082C104.269 59.6712 104.66 59.4658 104.982 59.1986C105.304 58.9315 105.557 58.6027 105.742 58.2192C105.92 57.8356 106.016 57.3904 106.016 56.8973C106.016 56.4589 105.947 56.0822 105.804 55.7603C105.66 55.4384 105.447 55.1575 105.173 54.911C104.893 54.6712 104.543 54.4658 104.126 54.2945C103.708 54.1233 103.221 53.9726 102.674 53.8356C102.174 53.7192 101.769 53.6027 101.448 53.4932C101.126 53.3836 100.872 53.2671 100.687 53.137C100.502 53.0069 100.379 52.8699 100.311 52.7192C100.242 52.5685 100.208 52.3904 100.208 52.1849L100.194 52.1712Z" fill="white"/>
<path id="Vector_4" fill-rule="evenodd" clip-rule="evenodd" d="M0 53.8904H44.4158V55.4178H0V53.8904ZM110.584 53.8904H155V55.4178H110.584V53.8904Z" fill="#25BCEF"/>
</g>
</g>
</g>
<defs>
<clipPath id="clip0_11_20380">
<rect width="155" height="60" fill="white"/>
</clipPath>
</defs>
</svg>
